<svg viewBox="0 0 64 64" xmlns="http://www.w3.org/2000/svg" role="img" aria-label="JZ9suite">
  <defs>
    <linearGradient id="jzg" x1="0" y1="0" x2="1" y2="1">
      <stop offset="0" stop-color="#F4F7F2"/>
      <stop offset="0.5" stop-color="#53E66D"/>
      <stop offset="1" stop-color="#2FAE47"/>
    </linearGradient>
  </defs>
  <!-- left bracket -->
  <path d="M21 10 H13 a3 3 0 0 0 -3 3 V51 a3 3 0 0 0 3 3 H21" fill="none" stroke="url(#jzg)" stroke-width="3.4" stroke-linecap="round" stroke-linejoin="round"/>
  <!-- right bracket -->
  <path d="M43 10 H51 a3 3 0 0 1 3 3 V51 a3 3 0 0 1 -3 3 H43" fill="none" stroke="url(#jzg)" stroke-width="3.4" stroke-linecap="round" stroke-linejoin="round"/>
  <!-- sun -->
  <circle cx="22" cy="23" r="3.1" fill="#53E66D"/>
  <!-- sparkle -->
  <path d="M40 17 l1.5 4 4 1.5 -4 1.5 -1.5 4 -1.5 -4 -4 -1.5 4 -1.5 Z" fill="#F4F7F2"/>
  <!-- mountains -->
  <path d="M15 43 L25 30 L32 38 L38 31 L49 43 Z" fill="url(#jzg)"/>
  <!-- terminal >_ -->
  <path d="M16 50 l4 -2.6 -4 -2.6" fill="none" stroke="#53E66D" stroke-width="2.4" stroke-linecap="round" stroke-linejoin="round"/>
  <line x1="23" y1="50.5" x2="30" y2="50.5" stroke="#53E66D" stroke-width="2.4" stroke-linecap="round"/>
</svg>
